<svg xmlns="http://www.w3.org/2000/svg" viewBox="0 0 231.3 63.86"><defs><style>.cls-1,.cls-4{fill:#231f20;}.cls-2{fill:#fffadb;}.cls-3{fill:#61bb46;}.cls-4{font-size:34.9px;font-family:Lato-Bold, Lato;font-weight:700;}</style></defs><title>Asset 2</title><g id="Layer_2" data-name="Layer 2"><g id="Layer_1-2" data-name="Layer 1"><path class="cls-1" d="M27.28,21.35l-1.58-.73c1.86-4,2.13-7.41.81-10.06C24.88,7.3,21.25,6,20.09,5.66c-3,2.26-6.92,6-6.7,7.82,0,.17.08.6,1,1,4.68,1.87,5.76-.27,5.77-.29l.06-.12c.38-.61,1-2.09.65-2.77-.28-.5-1.24-.56-1.78-.55l0-1.74c1.65,0,2.77.47,3.32,1.44.95,1.7-.41,4.07-.67,4.5s-2.09,3.49-8,1.14a2.92,2.92,0,0,1-2.07-2.35C11.23,10.14,18,5,19.41,4l.31-.23.38.08c.23,0,5.63,1.26,8,5.9C29.63,12.92,29.37,16.82,27.28,21.35Z"/><path class="cls-2" d="M48.09,36.19a4.51,4.51,0,0,0-3.31,1.51C43.08,28.16,35.83,21,27.14,21S11,28.34,9.43,38.06A4.62,4.62,0,0,0,5.8,36.19C3.08,36.19.87,38.79.87,42s2.21,5.8,4.93,5.8a4.62,4.62,0,0,0,3.63-1.87C11,55.64,18.34,63,27.14,63s15.94-7.17,17.64-16.71a4.51,4.51,0,0,0,3.31,1.51c2.73,0,4.94-2.6,4.94-5.8S50.82,36.19,48.09,36.19Z"/><path class="cls-1" d="M27.14,63.86c-8.61,0-16.08-6.73-18.25-16.22a5.35,5.35,0,0,1-3.09,1c-3.2,0-5.8-3-5.8-6.66s2.6-6.66,5.8-6.66a5.35,5.35,0,0,1,3.09,1c2.17-9.49,9.64-16.22,18.25-16.22s16,6.65,18.19,16a5.23,5.23,0,0,1,2.76-.79c3.2,0,5.81,3,5.81,6.66s-2.61,6.66-5.81,6.66a5.23,5.23,0,0,1-2.76-.79C43.09,57.21,35.63,63.86,27.14,63.86ZM10,43.83l.32,2c1.54,9.47,8.62,16.35,16.85,16.35,8.07,0,15.13-6.73,16.78-16l.31-1.7,1.18,1.26a3.69,3.69,0,0,0,2.68,1.23c2.25,0,4.07-2.21,4.07-4.93s-1.82-4.93-4.07-4.93a3.69,3.69,0,0,0-2.68,1.23l-1.18,1.26-.31-1.7c-1.65-9.27-8.71-16-16.78-16-8.23,0-15.31,6.88-16.85,16.35L10,40.15,8.75,38.6A3.74,3.74,0,0,0,5.8,37.06c-2.24,0-4.07,2.21-4.07,4.93s1.83,4.93,4.07,4.93a3.74,3.74,0,0,0,3-1.54Z"/><path class="cls-3" d="M30.79,9.92a6.73,6.73,0,0,1,.79-6.67A6.44,6.44,0,0,1,35.92.86"/><path class="cls-1" d="M30,10.25a7.65,7.65,0,0,1,.91-7.53A7.29,7.29,0,0,1,35.83,0L36,1.72a5.65,5.65,0,0,0-3.75,2.06,5.88,5.88,0,0,0-.67,5.81Z"/><path class="cls-3" d="M35.15,1.22A5.52,5.52,0,0,1,34.54,7a5.74,5.74,0,0,1-3.93,2"/><path class="cls-1" d="M30.69,9.82l-.15-1.73a5,5,0,0,0,3.33-1.67,4.67,4.67,0,0,0,.49-4.85L35.94.86a6.37,6.37,0,0,1-.73,6.65A6.57,6.57,0,0,1,30.69,9.82Z"/><path class="cls-3" d="M29.73,16.94a4.94,4.94,0,0,1,3.21-3.82,4.77,4.77,0,0,1,3.67.36"/><path class="cls-1" d="M30.58,17.1l-1.7-.32a5.81,5.81,0,0,1,3.78-4.48,5.67,5.67,0,0,1,4.36.41l-.82,1.53a4,4,0,0,0-3-.3A4.11,4.11,0,0,0,30.58,17.1Z"/><path class="cls-3" d="M36.09,12.85a5.68,5.68,0,0,1-3,3.21,3.75,3.75,0,0,1-2.87.16"/><path class="cls-1" d="M31.45,17.29A4.13,4.13,0,0,1,29.94,17l.63-1.61a2.91,2.91,0,0,0,2.2-.14,4.76,4.76,0,0,0,2.5-2.71l1.63.57a6.54,6.54,0,0,1-3.44,3.73A5,5,0,0,1,31.45,17.29Z"/><text class="cls-4" transform="translate(61.47 54.13) scale(0.98 1)">Born<tspan class="cls-3" x="76.67" y="0">Green</tspan></text></g></g></svg>