<?xml version="1.0" encoding="utf-8"?>
<!-- Generator: Adobe Illustrator 23.0.3, SVG Export Plug-In . SVG Version: 6.00 Build 0)  -->
<svg version="1.1" id="Layer_1" xmlns="http://www.w3.org/2000/svg" xmlns:xlink="http://www.w3.org/1999/xlink" x="0px" y="0px"
	 viewBox="0 0 231.3 63.9" style="enable-background:new 0 0 231.3 63.9;" xml:space="preserve">
<style type="text/css">
	.st0{fill:#231F20;}
	.st1{fill:#FFFADB;}
	.st2{fill:#61BB46;}
	.st3{enable-background:new    ;}
</style>
<title>Asset 2</title>
<path class="st0" d="M27.3,21.3l-1.6-0.7c1.9-4,2.1-7.4,0.8-10.1c-1.6-3.3-5.3-4.6-6.4-4.9c-3,2.3-6.9,6-6.7,7.8c0,0.2,0.1,0.6,1,1
	c4.7,1.9,5.8-0.3,5.8-0.3l0.1-0.1c0.4-0.6,1-2.1,0.6-2.8c-0.3-0.5-1.2-0.6-1.8-0.6V9c1.6,0,2.8,0.5,3.3,1.4c1,1.7-0.4,4.1-0.7,4.5
	s-2.1,3.5-8,1.1c-1.1-0.3-1.9-1.2-2.1-2.3C11.2,10.1,18,5,19.4,4l0.3-0.2l0.4,0.1c0.2,0,5.6,1.3,8,5.9
	C29.6,12.9,29.4,16.8,27.3,21.3z"/>
<path class="st1" d="M48.1,36.2c-1.3,0-2.5,0.6-3.3,1.5C43.1,28.2,35.8,21,27.1,21S11,28.3,9.4,38.1c-0.9-1.2-2.2-1.8-3.6-1.9
	c-2.7,0-4.9,2.6-4.9,5.8s2.2,5.8,4.9,5.8c1.4,0,2.8-0.7,3.6-1.9C11,55.6,18.3,63,27.1,63s15.9-7.2,17.6-16.7c0.8,0.9,2,1.5,3.3,1.5
	c2.7,0,4.9-2.6,4.9-5.8S50.8,36.2,48.1,36.2z"/>
<path class="st0" d="M27.1,63.9c-8.6,0-16.1-6.7-18.3-16.2c-0.9,0.6-2,1-3.1,1c-3.2,0-5.8-3-5.8-6.7s2.6-6.7,5.8-6.7
	c1.1,0,2.2,0.4,3.1,1c2.2-9.5,9.6-16.2,18.3-16.2s16,6.6,18.2,16c0.8-0.5,1.8-0.8,2.8-0.8c3.2,0,5.8,3,5.8,6.7s-2.6,6.7-5.8,6.7
	c-1,0-1.9-0.3-2.8-0.8C43.1,57.2,35.6,63.9,27.1,63.9z M10,43.8l0.3,2c1.5,9.5,8.6,16.3,16.9,16.3c8.1,0,15.1-6.7,16.8-16l0.3-1.7
	l1.2,1.3c0.7,0.8,1.7,1.2,2.7,1.2c2.3,0,4.1-2.2,4.1-4.9s-1.8-4.9-4.1-4.9c-1,0-2,0.5-2.7,1.2l-1.2,1.3L44,37.9
	c-1.7-9.3-8.7-16-16.8-16c-8.2,0-15.3,6.9-16.9,16.3L10,40.1l-1.3-1.6c-0.7-0.9-1.8-1.5-2.9-1.5c-2.2,0-4.1,2.2-4.1,4.9
	s1.8,4.9,4.1,4.9c1.2,0,2.3-0.6,3-1.5L10,43.8z"/>
<path class="st2" d="M30.8,9.9c-0.9-2.2-0.6-4.7,0.8-6.7c1.1-1.3,2.6-2.2,4.3-2.4"/>
<path class="st0" d="M30,10.2c-1-2.5-0.7-5.4,0.9-7.5c1.2-1.5,3-2.5,4.9-2.7L36,1.7c-1.5,0.2-2.8,0.9-3.8,2.1
	c-1.2,1.7-1.5,3.9-0.7,5.8L30,10.2z"/>
<path class="st2" d="M35.2,1.2c0.9,1.9,0.7,4.1-0.6,5.8c-1,1.2-2.4,1.9-3.9,2"/>
<path class="st0" d="M30.7,9.8l-0.1-1.7C31.8,8,33,7.4,33.9,6.4c1.1-1.4,1.3-3.3,0.5-4.8l1.6-0.7c1,2.2,0.8,4.7-0.7,6.7
	C34.1,8.9,32.4,9.7,30.7,9.8z"/>
<path class="st2" d="M29.7,16.9c0.3-1.8,1.5-3.2,3.2-3.8c1.2-0.4,2.5-0.2,3.7,0.4"/>
<path class="st0" d="M30.6,17.1l-1.7-0.3c0.4-2.1,1.8-3.8,3.8-4.5c1.4-0.5,3-0.3,4.4,0.4l-0.8,1.5c-0.9-0.5-2-0.6-3-0.3
	C31.8,14.5,30.8,15.7,30.6,17.1z"/>
<path class="st2" d="M36.1,12.8c-0.5,1.4-1.6,2.6-3,3.2c-0.9,0.4-1.9,0.5-2.9,0.2"/>
<path class="st0" d="M31.5,17.3c-0.5,0-1-0.1-1.5-0.3l0.6-1.6c0.7,0.2,1.5,0.2,2.2-0.1c1.2-0.5,2.1-1.5,2.5-2.7l1.6,0.6
	c-0.6,1.7-1.8,3-3.4,3.7C32.8,17.1,32.1,17.3,31.5,17.3z"/>
<g class="st3">
	<path class="st0" d="M64,54.1V28.9h8.5c1.6,0,3,0.2,4.1,0.5c1.1,0.3,2.1,0.8,2.8,1.3c0.7,0.6,1.3,1.3,1.6,2.1
		c0.3,0.8,0.5,1.8,0.5,2.8c0,0.6-0.1,1.2-0.3,1.7c-0.2,0.5-0.4,1-0.8,1.5s-0.8,0.9-1.4,1.3c-0.6,0.4-1.2,0.7-2,1
		c3.4,0.8,5.1,2.7,5.1,5.6c0,1.1-0.2,2.1-0.6,3c-0.4,0.9-1,1.7-1.7,2.3c-0.8,0.7-1.7,1.2-2.8,1.5c-1.1,0.4-2.4,0.6-3.8,0.6H64z
		 M68.6,39.8h3.7c1.6,0,2.7-0.3,3.6-0.9s1.2-1.5,1.2-2.8c0-1.3-0.4-2.3-1.1-2.8c-0.7-0.6-1.9-0.8-3.4-0.8h-3.9V39.8z M68.6,43.1v7.4
		h4.7c0.9,0,1.6-0.1,2.1-0.3s1-0.5,1.4-0.8c0.3-0.3,0.6-0.8,0.8-1.2c0.2-0.5,0.2-1,0.2-1.5c0-0.5-0.1-1-0.3-1.5
		c-0.2-0.4-0.4-0.8-0.8-1.1c-0.4-0.3-0.8-0.5-1.4-0.7c-0.6-0.2-1.3-0.2-2.1-0.2H68.6z"/>
	<path class="st0" d="M93.5,35.9c1.3,0,2.5,0.2,3.6,0.6s2,1,2.7,1.8s1.3,1.8,1.7,2.9c0.4,1.1,0.6,2.4,0.6,3.8c0,1.4-0.2,2.7-0.6,3.8
		c-0.4,1.1-1,2.1-1.7,2.9s-1.7,1.4-2.7,1.8s-2.3,0.6-3.6,0.6s-2.5-0.2-3.6-0.6s-2-1-2.7-1.8s-1.3-1.8-1.8-2.9
		c-0.4-1.1-0.6-2.4-0.6-3.8c0-1.4,0.2-2.7,0.6-3.8c0.4-1.1,1-2.1,1.8-2.9s1.7-1.4,2.7-1.8S92.2,35.9,93.5,35.9z M93.5,51.1
		c1.5,0,2.5-0.5,3.2-1.5c0.7-1,1.1-2.5,1.1-4.4c0-1.9-0.4-3.4-1.1-4.4c-0.7-1-1.8-1.5-3.2-1.5c-1.5,0-2.6,0.5-3.3,1.5
		c-0.7,1-1.1,2.5-1.1,4.4c0,1.9,0.4,3.4,1.1,4.4C90.9,50.6,92,51.1,93.5,51.1z"/>
	<path class="st0" d="M105.5,54.1V36.2h2.5c0.4,0,0.7,0.1,0.9,0.2c0.2,0.2,0.3,0.4,0.3,0.8l0.3,2.2c0.6-1.1,1.4-2,2.2-2.6
		s1.8-1,2.8-1c0.9,0,1.6,0.2,2.2,0.6l-0.5,3.2c0,0.2-0.1,0.4-0.2,0.4c-0.1,0.1-0.3,0.1-0.5,0.1c-0.2,0-0.4,0-0.7-0.1
		s-0.7-0.1-1.2-0.1c-0.9,0-1.6,0.2-2.3,0.7c-0.6,0.5-1.2,1.2-1.6,2.2v11.2H105.5z"/>
	<path class="st0" d="M119.4,54.1V36.2h2.6c0.5,0,0.9,0.3,1.1,0.8l0.3,1.4c0.4-0.4,0.7-0.7,1.1-1c0.4-0.3,0.8-0.6,1.2-0.8
		s0.9-0.4,1.4-0.5c0.5-0.1,1-0.2,1.6-0.2c1,0,1.8,0.2,2.5,0.5c0.7,0.3,1.4,0.8,1.9,1.4c0.5,0.6,0.9,1.3,1.1,2.1
		c0.3,0.8,0.4,1.7,0.4,2.7v11.4h-4.2V42.7c0-1.1-0.2-1.9-0.7-2.5c-0.5-0.6-1.2-0.9-2.2-0.9c-0.7,0-1.4,0.2-2.1,0.5s-1.2,0.8-1.8,1.4
		v12.9H119.4z"/>
</g>
<g class="st3">
	<path class="st2" d="M150.5,50.7c1,0,1.9-0.1,2.7-0.3s1.5-0.5,2.2-0.8V45h-3.1c-0.3,0-0.5-0.1-0.7-0.3c-0.2-0.2-0.3-0.4-0.3-0.6
		v-2.7h8.2v10.2c-0.6,0.5-1.3,0.9-2,1.2c-0.7,0.3-1.4,0.6-2.2,0.8s-1.6,0.4-2.5,0.5c-0.9,0.1-1.8,0.2-2.8,0.2c-1.8,0-3.5-0.3-5-1
		c-1.5-0.6-2.8-1.5-3.9-2.7c-1.1-1.1-2-2.5-2.6-4.1c-0.6-1.6-0.9-3.3-0.9-5.2c0-1.9,0.3-3.6,0.9-5.2s1.5-2.9,2.6-4.1
		c1.1-1.1,2.5-2,4-2.7c1.6-0.6,3.4-0.9,5.3-0.9c2,0,3.8,0.3,5.2,0.9s2.7,1.4,3.8,2.4l-1.3,2.1c-0.3,0.4-0.6,0.6-1,0.6
		c-0.3,0-0.6-0.1-0.8-0.3c-0.4-0.2-0.7-0.4-1.1-0.7c-0.4-0.2-0.8-0.4-1.3-0.6c-0.5-0.2-1-0.3-1.6-0.4c-0.6-0.1-1.2-0.2-2-0.2
		c-1.2,0-2.3,0.2-3.3,0.6c-1,0.4-1.8,1-2.5,1.8s-1.2,1.7-1.6,2.8c-0.4,1.1-0.6,2.3-0.6,3.7c0,1.5,0.2,2.7,0.6,3.9
		c0.4,1.1,1,2.1,1.7,2.9c0.7,0.8,1.6,1.4,2.6,1.8C148.2,50.5,149.3,50.7,150.5,50.7z"/>
	<path class="st2" d="M163.6,54.1V36.2h2.5c0.4,0,0.7,0.1,0.9,0.2s0.3,0.4,0.3,0.8l0.3,2.2c0.6-1.1,1.4-2,2.2-2.6s1.8-1,2.8-1
		c0.9,0,1.6,0.2,2.2,0.6l-0.5,3.2c0,0.2-0.1,0.4-0.2,0.4c-0.1,0.1-0.3,0.1-0.5,0.1c-0.2,0-0.4,0-0.7-0.1s-0.7-0.1-1.2-0.1
		c-0.9,0-1.6,0.2-2.3,0.7c-0.6,0.5-1.2,1.2-1.6,2.2v11.2H163.6z"/>
	<path class="st2" d="M184.8,35.9c1.1,0,2.1,0.2,3.1,0.5c0.9,0.4,1.7,0.9,2.4,1.6c0.7,0.7,1.2,1.5,1.6,2.5c0.4,1,0.6,2.2,0.6,3.4
		c0,0.3,0,0.6,0,0.8c0,0.2-0.1,0.4-0.2,0.5s-0.2,0.2-0.3,0.3c-0.1,0.1-0.3,0.1-0.5,0.1h-10.8c0.1,1.8,0.6,3.2,1.5,4s2,1.3,3.4,1.3
		c0.7,0,1.3-0.1,1.8-0.2c0.5-0.2,0.9-0.3,1.3-0.5s0.7-0.4,1-0.5s0.6-0.2,0.8-0.2c0.2,0,0.3,0,0.4,0.1c0.1,0.1,0.2,0.2,0.3,0.3
		l1.2,1.6c-0.5,0.6-1,1-1.6,1.4c-0.6,0.4-1.2,0.7-1.8,0.9c-0.6,0.2-1.3,0.4-1.9,0.5c-0.7,0.1-1.3,0.1-1.9,0.1
		c-1.2,0-2.4-0.2-3.4-0.6c-1-0.4-2-1-2.7-1.8c-0.8-0.8-1.4-1.8-1.8-3c-0.4-1.2-0.7-2.6-0.7-4.1c0-1.2,0.2-2.4,0.6-3.4
		c0.4-1.1,0.9-2,1.7-2.8s1.6-1.4,2.7-1.9C182.3,36.2,183.5,35.9,184.8,35.9z M184.9,39c-1.2,0-2.2,0.4-2.9,1.1
		c-0.7,0.7-1.1,1.7-1.3,3h7.9c0-0.6-0.1-1.1-0.2-1.6c-0.1-0.5-0.4-0.9-0.7-1.3c-0.3-0.4-0.7-0.7-1.2-0.9
		C186.1,39.1,185.5,39,184.9,39z"/>
	<path class="st2" d="M203.1,35.9c1.1,0,2.1,0.2,3.1,0.5c0.9,0.4,1.7,0.9,2.4,1.6c0.7,0.7,1.2,1.5,1.6,2.5c0.4,1,0.6,2.2,0.6,3.4
		c0,0.3,0,0.6,0,0.8c0,0.2-0.1,0.4-0.2,0.5s-0.2,0.2-0.3,0.3c-0.1,0.1-0.3,0.1-0.5,0.1h-10.8c0.1,1.8,0.6,3.2,1.5,4s2,1.3,3.4,1.3
		c0.7,0,1.3-0.1,1.8-0.2s0.9-0.3,1.3-0.5s0.7-0.4,1-0.5s0.5-0.2,0.8-0.2c0.2,0,0.3,0,0.4,0.1s0.2,0.2,0.3,0.3l1.2,1.6
		c-0.5,0.6-1,1-1.6,1.4c-0.6,0.4-1.2,0.7-1.8,0.9s-1.3,0.4-1.9,0.5s-1.3,0.1-1.9,0.1c-1.2,0-2.4-0.2-3.4-0.6c-1-0.4-2-1-2.7-1.8
		s-1.4-1.8-1.8-3c-0.4-1.2-0.7-2.6-0.7-4.1c0-1.2,0.2-2.4,0.6-3.4c0.4-1.1,0.9-2,1.7-2.8c0.7-0.8,1.6-1.4,2.7-1.9
		C200.6,36.2,201.8,35.9,203.1,35.9z M203.2,39c-1.2,0-2.2,0.4-2.9,1.1c-0.7,0.7-1.1,1.7-1.3,3h7.9c0-0.6-0.1-1.1-0.2-1.6
		s-0.4-0.9-0.7-1.3c-0.3-0.4-0.7-0.7-1.2-0.9S203.8,39,203.2,39z"/>
	<path class="st2" d="M214.1,54.1V36.2h2.6c0.5,0,0.9,0.3,1.1,0.8l0.3,1.4c0.4-0.4,0.7-0.7,1.1-1c0.4-0.3,0.8-0.6,1.2-0.8
		s0.9-0.4,1.4-0.5c0.5-0.1,1-0.2,1.6-0.2c1,0,1.8,0.2,2.5,0.5c0.7,0.3,1.4,0.8,1.9,1.4c0.5,0.6,0.9,1.3,1.1,2.1
		c0.3,0.8,0.4,1.7,0.4,2.7v11.4h-4.2V42.7c0-1.1-0.2-1.9-0.7-2.5c-0.5-0.6-1.2-0.9-2.2-0.9c-0.7,0-1.4,0.2-2.1,0.5s-1.2,0.8-1.8,1.4
		v12.9H214.1z"/>
</g>
</svg>
